<svg xmlns="http://www.w3.org/2000/svg" xmlns:xlink="http://www.w3.org/1999/xlink" width="64" height="64" id="bun">
  <defs>
    <path id="a" d="M49.83 30.46H0V.488h49.83v29.97z"></path>
  </defs>
  <g fill="none" fill-rule="evenodd">
    <path fill="#CB9963" d="M62.289 29.25c0 9.17-9.296 8.038-20.763 8.038-11.467 0-20.762 1.131-20.762-8.039s9.295-15.944 20.762-15.944S62.289 20.08 62.289 29.25"></path>
    <path fill="#010202" d="M52.949 15.843c2.524 2.623 4.017 5.91 4.017 9.581 0 9.17-9.295 8.039-20.762 8.039-5.783 0-11.011.286-14.776-.605 2.317 5.232 10.436 4.43 20.098 4.43 11.467 0 20.763 1.13 20.763-8.038 0-5.794-3.714-10.63-9.34-13.407" opacity=".3"></path>
    <path fill="#2E2E30" d="M59.503 33.702c-2.438 2.426-8.048 2.37-14.545 2.303-1.116-.01-2.263-.023-3.432-.023s-2.315.012-3.431.023c-6.496.071-12.11.124-14.546-2.303-1.001-.997-1.488-2.454-1.488-4.452 0-6.699 5.693-12.21 13.718-14.013.371.073 1.18.244 2.221.533-3.122 1.778-5.83 4.45-5.77 8.364a1.3 1.3 0 0 0 1.297 1.285h.02a1.302 1.302 0 0 0 1.278-1.325c-.055-3.503 3.362-5.765 6.662-7.133 3.323 1.378 6.794 3.65 6.741 7.133a1.3 1.3 0 0 0 1.277 1.325h.02c.708 0 1.287-.57 1.298-1.285.06-3.92-2.66-6.596-5.789-8.373a30.724 30.724 0 0 1 2.237-.525c8.026 1.802 13.72 7.315 13.72 14.014 0 1.998-.486 3.455-1.488 4.452M47.65 12.653A28.776 28.776 0 0 0 41.527 12a28.772 28.772 0 0 0-6.14.657c-9.29 2.032-15.92 8.593-15.92 16.593 0 2.73.738 4.794 2.257 6.308 3.206 3.193 9.317 3.126 16.397 3.058 2.216-.022 4.595-.022 6.81 0 1.036.01 2.05.021 3.038.021 5.766 0 10.622-.353 13.36-3.08 1.519-1.513 2.258-3.576 2.258-6.307 0-8.004-6.64-14.57-15.938-16.597"></path>
    <path fill="#CB9963" d="M48.532 42.135c-.038 10.431-10.606 9.105-23.65 9.058-13.044-.048-23.623 1.2-23.585-9.23.038-10.432 10.64-18.099 23.683-18.052 13.044.048 23.59 7.794 23.552 18.224"></path>
    <path fill="#010202" d="M37.925 26.799c2.871 2.983 4.57 6.722 4.57 10.898 0 10.431-10.574 9.145-23.618 9.145-6.578 0-12.526.325-16.809-.688 2.637 5.951 11.872 5.04 22.863 5.04 13.044 0 23.618 1.285 23.618-9.145 0-6.59-4.225-12.092-10.624-15.25" opacity=".3"></path>
    <g transform="translate(0 22.117)">
      <mask id="b" fill="#fff">
        <use xlink:href="#a"></use>
      </mask>
      <path fill="#2E2E30" d="M45.47 25.2c-2.833 2.803-9.251 2.715-16.682 2.611-1.27-.017-2.573-.036-3.902-.04-1.328-.005-2.632.003-3.901.011-7.426.049-13.848.092-16.663-2.732-1.17-1.176-1.735-2.877-1.728-5.201.029-7.717 6.607-14.04 15.846-16.065.461.089 1.582.324 3.008.736-3.678 1.98-6.962 5.016-6.908 9.551a1.3 1.3 0 0 0 1.292 1.29h.02c.717-.008 1.291-.6 1.282-1.321-.049-4.116 3.99-6.737 7.832-8.297 3.831 1.588 7.85 4.238 7.772 8.354a1.302 1.302 0 0 0 1.273 1.331h.02a1.301 1.301 0 0 0 1.302-1.28c.086-4.536-3.176-7.596-6.84-9.603a35.805 35.805 0 0 1 3.014-.713c9.224 2.094 15.757 8.464 15.728 16.181-.008 2.324-.585 4.02-1.765 5.186M31.908 1.252a1.217 1.217 0 0 0-.16-.034 32.535 32.535 0 0 0-6.763-.729 32.573 32.573 0 0 0-6.923.712C7.555 3.449.032 10.82 0 19.841c-.01 3.056.803 5.364 2.49 7.057 3.581 3.593 10.503 3.548 18.512 3.495 2.522-.016 5.228-.006 7.75.029 1.176.016 2.33.032 3.452.036 6.52.024 12.008-.354 15.085-3.395 1.7-1.68 2.53-3.984 2.54-7.04.034-9.02-7.433-16.444-17.92-18.77" mask="url(#b)"></path>
    </g>
  </g>
</svg>
